# xmcd
#
# Track frame offsets:
#	179
#	9275
#	18066
#	28848
#	39210
#	47617
#	59316
#	68624
#	79806
#	89279
#	97737
#	105889
#
# Disc length: 1529 seconds
# Revision: 2
# Processed by: cddbd v1.5.2PL0 Copyright (c) Steve Scherf et al.
# Submitted via: dBpowerAMP V12.0
#
DISCID=7505f70c
DTITLE=Johnny Cash - Complete Columbia Album Collection, Disc 7 [The Sound of Johnny Cash]
DYEAR=1962
DGENRE=Country
TTITLE0=Lost on the Desert
TTITLE1=Accidentally on Purpose
TTITLE2=In the Jailhouse Now
TTITLE3=Mr. Lonesome
TTITLE4=You Won't Have Far to Go
TTITLE5=In Them Old Cottonfields Back Home
TTITLE6=Delia's Gone
TTITLE7=I Forgot More Than You'll Ever Know
TTITLE8=You Remembered Me
TTITLE9=I'm Free from the Chain Gang Now
TTITLE10=Let Me Down Easy
TTITLE11=Sing it Pretty, Sue
EXTD=
EXTT0=
EXTT1=
EXTT2=
EXTT3=
EXTT4=
EXTT5=
EXTT6=
EXTT7=
EXTT8=
EXTT9=
EXTT10=
EXTT11=
PLAYORDER=
